<svg xmlns="http://www.w3.org/2000/svg" xmlns:xlink="http://www.w3.org/1999/xlink" version="1.1" x="0px" y="0px" viewBox="0 0 95 118.75" enable-background="new 0 0 95 95" xml:space="preserve"><path d="M67,46.1V35.5c5,1.7,11,3.3,18,4.3V27.9c-7-1-13-2.6-18-4.3v-5c5,1.7,11.4,3.3,18.4,4.3l0-11.9c-7-1-13.1-2.6-18.1-4.3  C61.4,4.4,56,1.7,53,0v11.9v5v11.9v9.7c-4-3.2-10.1-5-16.3-5c-17,0-30.5,13.8-30.5,30.8c0,17,13.2,30.8,30.2,30.8  c11.7,0,21.8-6.5,26.8-16.1c3.1-6.4,3.8-11.7,3.8-22.1V46.1z"/><text x="0" y="110" fill="#000000" font-size="5px" font-weight="bold" font-family="'Helvetica Neue', Helvetica, Arial-Unicode, Arial, Sans-serif">Created by Chang Kim</text><text x="0" y="115" fill="#000000" font-size="5px" font-weight="bold" font-family="'Helvetica Neue', Helvetica, Arial-Unicode, Arial, Sans-serif">from the Noun Project</text></svg>