<?xml version="1.0" encoding="UTF-8" standalone="no"?>
<!DOCTYPE svg PUBLIC "-//W3C//DTD SVG 20010904//EN"
              "http://www.w3.org/TR/2001/REC-SVG-20010904/DTD/svg10.dtd">

<svg xmlns="http://www.w3.org/2000/svg"
     width="25in" height="25in"
     viewBox="0 0 1800 1800">
    <rect width="100%" height="100%" style="fill:#97acec" />
    <path id="Note"
        fill="white" stroke="black" stroke-width="1"
        d="M 1072.90,872.08
           C 1072.90,872.08 1025.30,900.20 1025.30,900.20
             1025.30,900.20 936.40,951.82 936.40,951.82
             911.08,965.51 888.88,976.51 860.80,983.88
             849.77,986.78 826.45,990.78 815.30,990.80
             815.30,990.80 801.30,990.80 801.30,990.80
             801.30,990.80 792.20,990.15 792.20,990.15
             763.71,988.55 734.08,979.60 708.90,966.27
             708.90,966.27 701.90,962.16 701.90,962.16
             674.94,947.11 650.46,924.01 633.30,898.40
             618.44,876.22 607.38,852.39 601.33,826.30
             601.33,826.30 598.77,811.60 598.77,811.60
             598.77,811.60 597.73,806.70 597.73,806.70
             596.23,794.33 596.09,782.06 596.20,769.60
             596.20,769.60 598.00,751.40 598.00,751.40
             600.72,732.17 604.04,718.42 611.29,700.30
             619.96,678.61 631.82,658.68 646.91,640.80
             705.53,571.30 801.57,544.37 887.40,574.06
             906.31,580.60 924.39,589.74 940.60,601.49
             956.37,612.93 971.78,626.59 983.56,642.20
             983.56,642.20 990.98,652.00 990.98,652.00
             1008.31,677.09 1021.64,706.59 1027.08,736.70
             1028.89,746.77 1029.50,755.90 1029.50,766.10
             1029.50,770.48 1028.70,779.57 1029.50,782.90
             1029.50,782.90 1051.90,769.59 1051.90,769.59
             1051.90,769.59 1086.20,749.29 1086.20,749.29
             1086.20,749.29 1187.70,689.24 1187.70,689.24
             1187.70,689.24 1236.70,660.26 1236.70,660.26
             1236.70,660.26 1251.40,651.58 1251.40,651.58
             1251.40,651.58 1261.90,646.40 1261.90,646.40
             1262.57,652.05 1262.59,654.79 1262.60,660.40
             1262.60,660.40 1263.94,679.30 1263.94,679.30
             1263.94,679.30 1264.82,693.30 1264.82,693.30
             1264.82,693.30 1269.40,732.50 1269.40,732.50
             1269.40,732.50 1272.83,756.30 1272.83,756.30
             1272.83,756.30 1278.08,778.70 1278.08,778.70
             1278.08,778.70 1284.71,804.60 1284.71,804.60
             1284.71,804.60 1302.63,858.50 1302.63,858.50
             1302.63,858.50 1308.67,873.90 1308.67,873.90
             1309.30,875.54 1310.74,878.46 1310.34,880.17
             1309.58,883.35 1299.89,887.95 1296.90,889.72
             1296.90,889.72 1255.60,914.20 1255.60,914.20
             1255.60,914.20 1243.70,921.19 1243.70,921.19
             1242.20,921.99 1240.20,923.15 1238.69,921.75
             1237.75,920.88 1234.49,912.67 1233.90,911.00
             1233.90,911.00 1226.17,890.00 1226.17,890.00
             1226.17,890.00 1214.70,856.40 1214.70,856.40
             1214.70,856.40 1209.00,836.10 1209.00,836.10
             1209.00,836.10 1199.60,797.60 1199.60,797.60
             1199.60,797.60 1177.90,809.92 1177.90,809.92
             1176.07,811.01 1171.15,813.53 1170.28,815.25
             1169.42,816.93 1170.39,820.26 1170.76,822.10
             1170.76,822.10 1174.41,838.20 1174.41,838.20
             1178.22,855.01 1185.04,877.94 1190.82,894.20
             1190.82,894.20 1195.02,906.80 1195.02,906.80
             1195.02,906.80 1203.83,929.90 1203.83,929.90
             1204.69,932.18 1206.94,936.63 1206.15,938.93
             1205.17,941.78 1194.88,946.88 1191.90,948.66
             1191.90,948.66 1152.00,972.32 1152.00,972.32
             1152.00,972.32 1140.10,979.30 1140.10,979.30
             1138.71,980.08 1136.45,981.53 1134.89,980.43
             1133.97,979.79 1132.17,974.70 1131.54,973.30
             1131.54,973.30 1126.42,959.30 1126.42,959.30
             1126.42,959.30 1122.60,949.50 1122.60,949.50
             1122.60,949.50 1111.94,917.30 1111.94,917.30
             1111.94,917.30 1105.98,895.60 1105.98,895.60
             1103.61,887.06 1098.05,866.56 1097.40,858.50
             1091.98,859.79 1078.46,868.78 1072.90,872.08 Z" />
  <path id="SineWave #1"
        style="fill:#303f9f;stroke-width:0.4"
        d="M -650.00,1716.00
           C -450.00,1716.00 426.00,2097.00 441.00,2085.00
             456.00,2073.00 1965.00,1833.00 1965.00,1833.00
             1965.00,1833.00 1977.00,1074.00 1977.00,1074.00
             1977.00,1074.00 1800.00,900.00 1800.00,900.00
             1775.00,926.12 1750.00,952.24 1725.00,970.71
             1700.00,989.18 1675.00,1000.00 1650.00,1000.00
             1625.00,1000.00 1600.00,989.18 1575.00,970.71
             1550.00,952.24 1525.00,926.12 1500.00,900.00
             1475.00,873.88 1450.00,847.76 1425.00,829.29
             1400.00,810.82 1375.00,800.00 1350.00,800.00
             1325.00,800.00 1300.00,810.82 1275.00,829.29
             1250.00,847.76 1225.00,873.88 1200.00,900.00
             1175.00,926.12 1150.00,952.24 1125.00,970.71
             1100.00,989.18 1075.00,1000.00 1050.00,1000.00
             1025.00,1000.00 1000.00,989.18 975.00,970.71
             950.00,952.24 925.00,926.12 900.00,900.00
             875.00,873.88 850.00,847.76 825.00,829.29
             800.00,810.82 775.00,800.00 750.00,800.00
             725.00,800.00 700.00,810.82 675.00,829.29
             650.00,847.76 625.00,873.88 600.00,900.00
             575.00,926.12 550.00,952.24 525.00,970.71
             500.00,989.18 475.00,1000.00 450.00,1000.00
             425.00,1000.00 400.00,989.18 375.00,970.71
             350.00,952.24 325.00,926.12 300.00,900.00
             275.00,873.88 250.00,847.76 225.00,829.29
             200.00,810.82 175.00,800.00 150.00,800.00
             125.00,800.00 100.00,810.82 75.00,829.29
             50.00,847.76 25.00,873.88 0.00,900.00
             0.00,900.00 -450.00,1716.00 -450.00,1716.00 Z" />
</svg>
