<?xml version="1.0" encoding="UTF-8" standalone="no"?>
<!-- Created with Inkscape (http://www.inkscape.org/) -->

<svg version="1.1" id="svg100" width="819.20001" height="819.20001" viewBox="0 0 819.20001 819.20001"
    sodipodi:docname="wave-background.svg" inkscape:version="1.2 (dc2aedaf03, 2022-05-15)"
    xmlns:inkscape="http://www.inkscape.org/namespaces/inkscape" xmlns:sodipodi="http://sodipodi.sourceforge.net/DTD/sodipodi-0.dtd"
    xmlns="http://www.w3.org/2000/svg">
  <defs
     id="defs104" />
  <sodipodi:namedview
     id="namedview102"
     pagecolor="#ffffff"
     bordercolor="#000000"
     borderopacity="0.25"
     inkscape:showpageshadow="2"
     inkscape:pageopacity="0.0"
     inkscape:pagecheckerboard="0"
     inkscape:deskcolor="#d1d1d1"
     showgrid="false"
     inkscape:zoom="1.0522461"
     inkscape:cx="260.87054"
     inkscape:cy="405.32344"
     inkscape:window-width="1920"
     inkscape:window-height="1013"
     inkscape:window-x="1920"
     inkscape:window-y="0"
     inkscape:window-maximized="1"
     inkscape:current-layer="g106" />
  <g
     inkscape:groupmode="layer"
     inkscape:label="Image"
     id="g106">
    <rect width="100%" height="100%" style="fill:#97acec" />
    <path
       style="fill:#303f9f;stroke-width:0.4"
       d="M 0,675.24665 V 531.29333 l 0.90000001,-0.27124 C 1.395,530.87293 4.2300001,530.65405 7.2000001,530.53569 16.609581,530.16065 23.849334,531.88465 33.4,536.77465 c 14.618425,7.48468 22.637357,14.54308 59.559365,52.42536 12.361135,12.6826 18.158805,18.15068 25.184755,23.753 11.36285,9.06044 20.59833,13.94248 31.65588,16.7338 5.22697,1.31948 14.76012,1.31312 20.2,-0.0136 12.21777,-2.97952 22.66793,-8.9268 36.57459,-20.81492 5.88736,-5.0328 20.17704,-19.13196 31.46686,-31.04732 6.76523,-7.14008 18.23335,-18.51876 22.95855,-22.77948 27.84475,-25.10764 49.27989,-30.517 73.72254,-18.60452 12.2084,5.94992 26.58646,18.07168 47.65158,40.17368 32.38509,33.97924 46.28977,45.31912 62.77793,51.1982 8.32172,2.96724 17.11644,3.75512 24.71812,2.21444 13.68084,-2.77276 25.71592,-9.67064 41.52984,-23.80264 2.42,-2.1626 9.8834,-9.52972 16.58528,-16.37136 38.86444,-39.67476 45.52264,-45.54236 60.21472,-53.06472 8.696,-4.4524 16.04508,-6.37144 24.4,-6.37144 14.32456,0 28.46448,6.49708 45.6,20.95248 5.57684,4.70456 14.7812,13.80092 38.29452,37.84512 12.82708,13.11672 16.32244,16.44804 23.70548,22.59288 8.71096,7.25012 18.60992,13.1868 26.70836,16.01772 6.41096,2.24108 9.64904,2.7886 16.49164,2.7886 6.8426,0 10.08068,-0.54752 16.49164,-2.7886 10.25332,-3.5842 22.97548,-11.98424 34.70724,-22.91604 1.35484,-1.26244 2.94432,-2.73172 3.53224,-3.26508 l 1.06888,-0.96972 V 709.93021 819.19993 H 409.6 0 V 675.24657 Z"
       id="path268" />
  </g>
</svg>
