<?xml version="1.0" encoding="UTF-8" standalone="no"?>
<!-- Created with Inkscape (http://www.inkscape.org/) -->

<svg version="1.1" id="svg1814" width="2400" height="2400" viewBox="0 0 2400 2400" sodipodi:docname="clearstream_logo_dark.svg"
    inkscape:version="1.1.2 (08b2f3d93c, 2022-04-05)" xmlns:inkscape="http://www.inkscape.org/namespaces/inkscape"
    xmlns:sodipodi="http://sodipodi.sourceforge.net/DTD/sodipodi-0.dtd" xmlns="http://www.w3.org/2000/svg">
  <defs
     id="defs1818" />
  <sodipodi:namedview
     id="namedview1816"
     pagecolor="#ffffff"
     bordercolor="#666666"
     borderopacity="1.0"
     inkscape:pageshadow="2"
     inkscape:pageopacity="0.0"
     inkscape:pagecheckerboard="0"
     showgrid="false"
     inkscape:zoom="0.2275"
     inkscape:cx="1200"
     inkscape:cy="1200"
     inkscape:window-width="1456"
     inkscape:window-height="755"
     inkscape:window-x="0"
     inkscape:window-y="0"
     inkscape:window-maximized="1"
     inkscape:current-layer="g1820" />
  <g
     inkscape:groupmode="layer"
     inkscape:label="Image"
     id="g1820">
    <path
       style="fill:#000000;stroke-width:1.33333"
       d="M 1132.6667,2331.9028 C 1000.6315,2323.2816 880.29104,2295.432 762.66667,2246.276 490.77211,2132.6493 271.2276,1914.3595 156.25843,1643.3333 108.72025,1531.2677 81.230952,1419.6735 69.713572,1292 66.351112,1254.7261 66.34998,1145.2956 69.711669,1108 78.727008,1007.9812 96.492672,922.80991 127.14275,832.66667 200.08768,618.13243 339.15236,427.60516 522.69161,290.74012 579.59699,248.30584 632.26523,216.00751 696.66667,184.05144 827.07172,119.34431 958.97989,82.692563 1108,69.759149 c 34.1833,-2.966762 141.7483,-3.406918 175.3333,-0.717465 155.4635,12.449355 293.0976,50.714936 428,118.994286 88.6886,44.88872 166.3443,97.68108 242,164.51786 23.6756,20.91581 73.85,71.1571 95.3191,95.44617 155.3607,175.76759 252.8349,394.84528 277.9476,624.6999 5.4272,49.6744 6.0667,63.0921 6.0667,127.3001 0,64.208 -0.6395,77.6257 -6.0667,127.3001 -28.1419,257.5802 -147.5592,501.6546 -334.5251,683.728 -188.5478,183.6142 -431.4404,295.5287 -690.7416,318.2642 -46.083,4.0406 -127.4718,5.3002 -168.6666,2.6105 z M 626.76081,1329.9136 c 19.41343,-4.3647 43.90376,-15.7523 64.6262,-30.05 27.76512,-19.1569 50.01264,-40.0675 133.99528,-125.9434 64.26922,-65.718 96.49931,-89.2509 140.76495,-102.7799 10.84951,-3.316 13.71489,-3.6226 33.85276,-3.6226 20.1379,0 23.0033,0.3066 33.8528,3.6226 44.2659,13.5291 75.9995,36.7104 140.7713,102.833 98.4351,100.488 118.9487,118.8798 154.4689,138.4919 25.2603,13.9472 47.0075,20.1171 70.907,20.1171 23.8995,0 45.6467,-6.1699 70.9069,-20.1171 35.5403,-19.6231 56.981,-38.8528 154.4754,-138.545 64.2692,-65.718 96.4993,-89.2509 140.7649,-102.7799 10.8496,-3.316 13.7149,-3.6226 33.8528,-3.6226 20.1379,0 23.0032,0.3066 33.8528,3.6226 44.2659,13.5291 75.9995,36.7104 140.7713,102.833 62.8859,64.1974 95.268,95.9123 110.1378,107.8684 15.4581,12.4293 35.0333,25.8578 47.3757,32.4996 16.4531,8.854 43.5765,17.6587 54.3985,17.6587 4.7175,0 4.4823,0.8842 7.4487,-28 5.0567,-49.2355 6.5304,-123.0324 3.3683,-168.6667 C 2183.6988,938.28172 2117.6067,759.11869 2000.6097,602 1954.9899,540.73572 1898.6301,481.36743 1838.5653,431.30561 1738.9061,348.24311 1620.3472,283.71519 1497.3333,245.58353 1349.1435,199.64789 1189.9882,188.77211 1035.9335,214.05403 862.55279,242.50755 696.97535,318.23936 562,430.82175 385.59425,577.96105 266.54245,776.35207 220.84379,999.33333 c -4.46143,21.76897 -11.83627,66.11867 -11.11476,66.84017 0.19129,0.1913 4.4379,1.0012 9.43692,1.7998 20.80422,3.3234 45.10825,13.4988 67.79266,28.3826 25.69578,16.8596 50.56411,38.9974 92.46347,82.3108 85.89673,88.7956 114.54013,114.4014 149.67095,133.7985 18.7883,10.3737 38.434,17.1403 58.2403,20.0598 7.41022,1.0923 29.4455,-0.3672 39.42748,-2.6114 z"
       id="path1940" />
  </g>
</svg>
